<svg xmlns="http://www.w3.org/2000/svg" viewBox="0 0 57.80 49.77"><g transform="translate(-415.47,-312.41)"><path fill="#080909" d="M 453.32 329.21 C 452.98 330.35 452.67 331.36 452.38 332.38 C 451.77 334.5 451.15 336.61 450.71 338.78 C 450.67 338.99 450.62 339.2 450.55 339.39 C 450.3 340.04 449.76 340.16 449.28 339.68 C 449.11 339.51 448.97 339.32 448.82 339.12 C 447.12 336.88 445.42 334.64 443.72 332.4 C 443.54 332.17 443.35 331.95 443.11 331.64 C 442.93 331.94 442.79 332.15 442.68 332.38 C 441.34 335.13 440.02 337.88 438.68 340.63 C 438.53 340.96 438.39 341.3 438.1 341.54 C 437.74 341.84 437.36 341.81 437.1 341.43 C 436.98 341.25 436.9 341.05 436.8 340.87 C 435.21 337.8 433.86 334.63 432.6 331.43 C 432.48 331.12 432.33 330.82 432.19 330.49 C 431.96 330.41 431.73 330.34 431.51 330.27 C 430.88 330.05 430.25 329.86 429.62 329.63 C 429.36 329.54 429.13 329.39 429 329.13 C 428.9 328.91 428.93 328.64 429.1 328.45 C 429.25 328.28 429.45 328.22 429.68 328.28 C 429.7 328.29 429.73 328.3 429.76 328.31 C 431.88 329.3 434.16 329.61 436.45 329.77 C 438.81 329.95 441.16 329.83 443.52 329.56 C 445.83 329.29 448.13 328.93 450.39 328.38 C 456.44 326.91 462 324.43 466.85 320.48 C 468.27 319.33 469.59 318.09 470.79 316.73 C 471.16 316.29 471.54 315.86 471.93 315.43 C 472.05 315.3 472.18 315.18 472.33 315.08 C 472.54 314.94 472.84 314.98 473.01 315.13 C 473.18 315.28 473.27 315.6 473.16 315.8 C 473.05 316.01 472.9 316.2 472.74 316.39 C 472.27 316.94 471.79 317.48 471.29 318.05 C 471.38 319.49 471.43 320.94 471.58 322.38 C 471.8 324.43 472.1 326.46 472.36 328.5 C 472.41 328.86 472.46 329.22 472.46 329.58 C 472.46 330.15 471.98 330.45 471.46 330.23 C 471.21 330.12 470.98 329.96 470.75 329.82 C 468.56 328.41 466.37 327.01 464.18 325.61 C 463.98 325.48 463.77 325.37 463.59 325.27 C 463.33 325.38 463.36 325.58 463.35 325.74 C 463.13 328.66 462.92 331.59 462.71 334.51 C 462.68 334.84 462.66 335.18 462.59 335.5 C 462.41 336.22 461.81 336.46 461.21 336.04 C 460.94 335.86 460.7 335.61 460.45 335.39 C 458.89 333.97 457.33 332.54 455.75 331.12 C 455.14 330.58 454.5 330.08 453.86 329.57 C 453.73 329.46 453.57 329.38 453.32 329.21 M 433.79 330.82 C 433.84 331.02 433.85 331.2 433.91 331.36 C 434.1 331.84 434.3 332.31 434.49 332.79 C 435.38 335 436.33 337.19 437.43 339.31 C 437.49 339.43 437.6 339.51 437.7 339.62 C 437.78 339.52 437.83 339.48 437.86 339.43 C 439.17 336.74 440.48 334.05 441.79 331.36 C 441.83 331.27 441.82 331.14 441.84 331.04 C 440.46 331.05 439.14 331.1 437.81 331.07 C 436.49 331.03 435.18 330.91 433.79 330.82 M 462.05 325.29 C 461.39 325.62 460.8 325.93 460.21 326.21 C 459.61 326.5 459.01 326.77 458.4 327.03 C 457.79 327.29 457.16 327.51 456.55 327.78 C 455.96 328.03 455.3 328.15 454.75 328.48 C 454.79 328.6 454.79 328.68 454.82 328.71 C 457.02 330.5 459.12 332.4 461.19 334.34 C 461.23 334.38 461.3 334.36 461.36 334.38 C 461.57 333.59 462.11 326.61 462.05 325.29 M 449.52 338 C 450.34 335.1 451.11 332.37 451.88 329.64 C 451.89 329.56 451.88 329.47 451.87 329.32 C 451.35 329.44 450.86 329.56 450.36 329.67 C 449.86 329.78 449.35 329.89 448.85 329.99 C 448.32 330.1 447.79 330.21 447.25 330.3 C 446.74 330.39 446.23 330.45 445.72 330.53 C 445.22 330.61 444.71 330.62 444.18 330.79 C 444.25 330.94 444.28 331.06 444.35 331.15 C 446.04 333.39 447.7 335.66 449.52 338 M 471.04 328.32 C 470.84 326.79 470.64 325.32 470.48 323.86 C 470.32 322.4 470.21 320.94 470.07 319.39 C 469.89 319.53 469.77 319.61 469.66 319.7 C 469.41 319.92 469.16 320.15 468.91 320.37 C 467.57 321.55 466.14 322.61 464.67 323.61 C 464.49 323.73 464.21 323.8 464.21 324.15 C 466.38 325.53 468.57 326.92 470.77 328.31 C 470.81 328.33 470.88 328.31 471.04 328.32 "/><path fill="#080909" d="M 435.52 351.37 C 435.21 351.65 434.88 351.95 434.54 352.25 C 432.61 353.96 430.68 355.66 428.75 357.35 C 428.41 357.65 428.04 357.92 427.65 358.15 C 427.09 358.46 426.63 358.26 426.47 357.64 C 426.41 357.41 426.38 357.17 426.37 356.93 C 426.28 355.21 426.2 353.49 426.11 351.77 C 426.02 350.32 425.92 348.87 425.82 347.42 C 425.81 347.31 425.77 347.2 425.73 347.03 C 425.45 347.17 425.21 347.28 424.98 347.41 C 422.55 348.84 420.12 350.26 417.7 351.68 C 417.41 351.84 417.12 352.02 416.81 352.14 C 416.23 352.37 415.77 352.12 415.68 351.5 C 415.64 351.24 415.65 350.96 415.68 350.69 C 415.78 349.88 415.92 349.07 415.99 348.26 C 416.23 345.61 416.7 342.98 417.02 340.34 C 417.04 340.16 417.05 339.98 417.07 339.77 C 416.73 339.4 416.37 339.04 416.02 338.66 C 415.86 338.48 415.71 338.29 415.59 338.08 C 415.47 337.86 415.54 337.6 415.73 337.43 C 415.92 337.25 416.19 337.21 416.4 337.34 C 416.53 337.42 416.65 337.52 416.75 337.62 C 421.69 342.73 427.63 346.22 434.25 348.65 C 436.47 349.46 438.73 350.14 441.05 350.55 C 442.96 350.89 444.88 351.14 446.82 351.22 C 448.03 351.27 449.24 351.32 450.45 351.32 C 452.91 351.32 455.33 351 457.75 350.58 C 458.2 350.5 458.64 350.41 459.09 350.32 C 459.23 350.29 459.38 350.27 459.53 350.26 C 459.89 350.26 460.13 350.45 460.2 350.75 C 460.27 351.05 460.04 351.41 459.71 351.52 C 459.62 351.54 459.53 351.54 459.44 351.56 C 458.48 351.72 457.53 351.88 456.53 352.05 C 455.96 353.04 455.36 354.02 454.84 355.03 C 453.75 357.12 452.7 359.23 451.63 361.33 C 451.54 361.52 451.44 361.71 451.3 361.87 C 451.06 362.16 450.59 362.18 450.34 361.89 C 450.16 361.68 450.03 361.44 449.91 361.2 C 449.5 360.32 449.11 359.44 448.68 358.57 C 447.89 356.97 447.09 355.38 446.29 353.78 C 446.21 353.62 446.11 353.47 446.02 353.34 C 445.77 353.32 445.7 353.5 445.59 353.63 C 443.72 356.01 441.86 358.39 439.99 360.77 C 439.86 360.94 439.74 361.12 439.59 361.26 C 439.2 361.63 438.69 361.53 438.48 361.04 C 438.42 360.91 438.39 360.75 438.35 360.61 C 437.96 359.21 437.58 357.81 437.19 356.41 C 436.77 354.93 436.35 353.45 435.92 351.96 C 435.86 351.76 435.88 351.47 435.52 351.37 M 427.15 346.99 C 427.01 347.28 427.09 347.58 427.11 347.88 C 427.17 348.84 427.25 349.8 427.3 350.77 C 427.39 352.54 427.46 354.32 427.55 356.1 C 427.56 356.24 427.62 356.37 427.66 356.52 C 428.66 355.92 433.88 351.31 434.75 350.28 C 434.74 350.25 434.73 350.21 434.71 350.2 C 432.22 349.2 429.7 348.27 427.33 347 C 427.29 346.97 427.22 346.99 427.15 346.99 M 418.23 340.85 C 418.11 341.75 418.01 342.46 417.91 343.18 C 417.61 345.49 417.3 347.79 417 350.11 C 416.98 350.24 416.93 350.41 417.17 350.52 C 419.82 349.01 422.49 347.5 425.17 345.82 C 424.32 345.27 423.54 344.77 422.77 344.25 C 422.02 343.74 421.28 343.21 420.55 342.67 C 419.81 342.11 419.09 341.53 418.23 340.85 M 439.38 359.42 C 439.61 359.14 439.75 358.99 439.88 358.83 C 440.91 357.53 441.93 356.21 442.96 354.91 C 443.52 354.2 444.1 353.5 444.66 352.79 C 444.75 352.68 444.87 352.56 444.73 352.33 C 443.91 352.22 443.04 352.12 442.18 351.99 C 441.32 351.86 440.45 351.7 439.59 351.54 C 438.74 351.38 437.93 351.04 436.96 350.96 C 437.68 353.81 438.55 356.54 439.38 359.42 M 454.84 352.35 C 454.59 352.35 454.39 352.32 454.19 352.34 C 451.96 352.61 449.74 352.64 447.5 352.5 C 447.4 352.5 447.29 352.54 447.15 352.58 C 447.21 352.74 447.23 352.86 447.28 352.96 C 448.38 355.21 449.48 357.46 450.59 359.7 C 450.64 359.79 450.73 359.86 450.83 359.96 C 452.18 357.41 453.49 354.91 454.84 352.35 "/><path fill="#060707" d="M 458.53 323.89 C 458.13 323.97 457.87 323.86 457.76 323.61 C 457.64 323.35 457.7 323.05 457.93 322.87 C 458.1 322.75 458.3 322.66 458.48 322.56 C 459.36 322.08 460.23 321.62 461.1 321.13 C 464.65 319.11 467.52 316.33 470.07 313.18 C 470.22 313 470.36 312.8 470.53 312.63 C 470.74 312.43 471.06 312.41 471.28 312.56 C 471.5 312.71 471.61 313.04 471.49 313.29 C 471.39 313.5 471.24 313.7 471.09 313.89 C 468.18 317.54 464.79 320.63 460.64 322.84 C 460.1 323.12 459.57 323.39 459.03 323.67 C 458.84 323.77 458.64 323.84 458.53 323.89 "/></g></svg>