<svg xmlns="http://www.w3.org/2000/svg" viewBox="0 0 174.45 54.89"><g transform="translate(-493.27,-239.53)"><path fill="#45a549" d="M 505.9 247.09 C 506.29 246.79 506.63 246.49 506.93 246.1 C 507.02 245.97 507.15 245.76 507.23 245.8 C 507.62 245.8 507.75 245.5 507.88 245.29 C 508 245.07 508.09 244.86 508.26 244.68 C 508.82 243.95 509.08 243.14 509.29 242.23 C 509.34 242.02 509.34 241.76 509.29 241.51 C 509.25 241.29 509.12 241.12 508.82 241.16 C 508.65 241.21 508.43 241.21 508.3 241.29 C 507.79 241.72 507.28 242.15 506.93 242.75 L 506.42 243.82 C 506.16 244.47 505.82 245.11 505.73 245.8 C 505.69 246.23 505.64 246.7 505.56 247.18 Z M 499.5 284.28 C 499.59 284.24 499.63 284.15 499.68 284.07 C 499.89 283.68 500.1 283.29 500.27 282.86 C 500.49 282.35 500.66 281.83 500.83 281.32 C 500.92 281.15 500.83 281.02 500.62 281.02 L 499.97 280.93 C 499.55 280.93 499.12 280.93 498.69 280.89 C 498.26 280.85 497.83 280.89 497.44 281.11 C 497.18 281.23 496.93 281.36 496.67 281.53 C 495.77 282 495.38 282.82 495.29 283.77 C 495.29 283.94 495.34 284.11 495.42 284.24 C 495.68 284.58 496.11 284.8 496.54 284.88 L 497.44 284.97 C 497.57 284.97 497.74 285.01 497.87 285.05 C 498.52 285.05 499.03 284.71 499.5 284.28 M 501.09 275.52 L 500.88 273.16 C 500.79 272.26 500.7 271.36 500.57 270.45 C 500.53 269.94 500.45 269.42 500.32 268.95 C 500.19 268.26 500.27 267.62 500.27 266.97 L 500.27 265.81 C 500.32 264.91 500.19 263.97 500.36 263.07 C 500.4 262.85 500.36 262.59 500.36 262.38 C 500.32 261.65 500.27 260.88 500.27 260.1 C 500.32 259.33 500.36 258.55 500.45 257.78 C 500.57 256.62 500.7 255.46 500.92 254.35 C 501.09 253.23 501.3 252.11 501.52 251.04 C 501.69 250.31 501.69 250.31 501 250.31 C 500.79 250.35 500.62 250.39 500.45 250.39 C 500.27 250.44 500.1 250.48 499.93 250.44 C 499.42 250.35 498.95 250.48 498.47 250.44 C 497.79 250.39 497.14 250.27 496.58 249.92 C 496.32 249.75 496.07 249.54 495.77 249.37 C 494.91 248.98 494.43 248.21 494 247.43 C 493.75 247 493.75 246.45 493.79 245.93 C 493.88 245.16 494.09 244.38 494.52 243.74 C 494.78 243.31 495.12 242.96 495.59 242.66 C 496.24 242.32 496.88 242.11 497.66 242.11 C 498 242.11 498.3 242.28 498.56 242.54 C 499.03 242.96 499.29 243.52 499.38 244.12 C 499.46 244.55 499.5 244.94 499.46 245.33 C 499.33 246.02 498.95 246.4 498.52 246.79 C 498.39 246.88 498.21 246.96 498.09 246.96 C 497.53 247.09 497.05 246.75 496.97 246.19 C 496.97 246.1 497.01 245.97 497.1 245.89 L 497.57 245.5 C 497.83 245.33 498 245.11 497.91 244.77 C 497.91 244.51 497.91 244.21 497.83 244 C 497.36 243.14 496.32 243.27 495.85 244 C 495.42 244.64 495.16 245.46 495.29 246.23 C 495.46 247.13 495.85 247.86 496.8 248.21 C 497.74 248.59 498.73 248.68 499.71 248.77 C 500.45 248.85 501.18 248.77 501.86 248.51 C 502.04 248.42 502.21 248.29 502.25 248.08 C 502.55 247.22 502.81 246.36 503.15 245.5 C 503.37 244.9 503.67 244.38 503.97 243.82 C 504.01 243.7 504.1 243.57 504.18 243.44 C 504.61 242.71 505 241.93 505.77 241.46 L 506.25 241.04 C 506.55 240.69 506.93 240.39 507.41 240.18 C 507.58 240.09 507.75 240.05 507.92 239.92 C 508.61 239.53 509.29 239.66 509.85 240.09 C 510.54 240.56 510.88 241.29 510.8 242.19 C 510.67 243.48 510.11 244.64 509.34 245.67 C 508.99 246.14 508.65 246.62 508.26 247.09 C 508.05 247.35 507.75 247.56 507.49 247.78 L 506.89 248.21 L 505.64 249.15 C 505.47 249.28 505.39 249.41 505.39 249.62 C 505.39 250.78 505.43 251.94 505.64 253.06 C 505.73 253.45 505.77 253.83 505.77 254.18 L 505.9 256.93 C 505.9 257.78 505.95 258.68 505.99 259.54 C 505.99 259.71 506.07 259.89 506.12 260.06 C 506.25 260.7 506.38 261.35 506.55 261.99 C 506.55 262.08 506.59 262.16 506.59 262.25 L 507.28 266.37 L 507.36 267.36 L 507.62 269.98 L 507.75 272.82 C 507.79 273.16 507.83 273.54 507.83 273.89 C 507.88 275.13 507.92 276.38 507.54 277.58 C 507.45 277.8 507.54 277.93 507.71 278.01 C 508.05 278.14 508.43 278.31 508.78 278.4 C 509.38 278.57 509.94 278.79 510.45 279.13 C 510.75 279.34 511.14 279.52 511.48 279.64 L 515.61 280.89 C 516.72 281.19 517.84 281.49 518.96 281.57 C 519.52 281.62 520.07 281.57 520.63 281.53 L 521.19 281.53 C 521.92 281.57 522.65 281.66 523.38 281.66 C 524.11 281.66 524.8 281.7 525.53 281.75 C 525.74 281.79 526 281.75 526.26 281.7 C 526.56 281.7 526.9 281.62 527.2 281.75 C 527.38 281.83 527.59 281.7 527.76 281.66 C 527.93 281.62 528.06 281.57 528.23 281.7 C 528.36 281.75 528.54 281.75 528.66 281.75 C 528.79 281.75 528.88 281.7 529.01 281.7 C 529.14 281.66 529.27 281.7 529.27 281.88 C 529.31 281.92 529.22 282.05 529.14 282.09 C 529.01 282.18 528.84 282.26 528.66 282.3 C 528.49 282.35 528.41 282.43 528.41 282.65 C 528.36 282.95 528.28 283.21 527.98 283.42 C 527.55 283.81 527.2 284.32 526.77 284.71 C 526.43 285.01 526.04 285.27 525.66 285.44 C 524.97 285.74 524.28 286 523.6 286.26 L 521.62 286.86 C 521.49 286.9 521.36 286.95 521.28 286.9 C 520.72 286.77 520.2 286.95 519.64 286.9 C 519.21 286.9 518.79 287.03 518.36 287.07 L 517.67 287.07 C 516.08 286.82 514.54 286.47 512.99 286 C 512.17 285.79 511.36 285.48 510.54 285.14 C 509.04 284.5 507.54 283.85 506.03 283.16 L 505.56 282.99 C 505.21 282.86 505.21 282.91 504.96 283.21 C 504.36 283.89 503.75 284.58 503.11 285.23 C 502.64 285.74 501.99 286 501.3 286.17 C 501.18 286.21 500.96 286.17 500.83 286.13 C 500.62 286.04 500.45 286.04 500.23 286.17 C 499.55 286.6 498.86 286.82 498.09 286.82 C 497.61 286.82 497.1 286.73 496.62 286.6 C 496.11 286.43 495.59 286.3 495.12 286.04 C 494.56 285.74 494.22 285.31 493.96 284.8 C 493.83 284.5 493.83 284.11 493.45 283.94 C 493.32 283.89 493.32 283.64 493.32 283.42 C 493.27 282.73 493.36 282 493.7 281.36 C 493.96 280.93 494.09 280.42 494.35 279.99 C 494.69 279.39 495.29 278.96 495.94 278.61 C 496.58 278.27 497.27 277.93 497.87 277.5 C 498.43 277.11 499.03 276.98 499.71 277.07 C 500.19 277.11 500.66 277.2 501.18 276.98 Z M 501.09 275.52 "/><path fill="#45a549" d="M 520.76 256.07 C 520.72 255.21 521.41 253.75 522.39 253.66 C 523.42 253.53 524.07 254.65 524.28 255.51 C 524.41 256.02 524.28 256.45 523.94 256.8 C 523.51 257.23 523.46 257.27 522.95 257.31 C 522.82 257.31 522.65 257.27 522.39 257.27 C 521.54 257.27 520.85 257.01 520.76 256.07 M 519.52 263.07 L 519.95 263.75 C 520.16 264.14 520.55 264.48 520.89 264.82 L 521.58 265.34 C 521.79 265.43 522.18 265.95 522.39 265.99 C 522.65 266.03 523.38 266.54 523.34 266.2 C 523.16 264.7 522.44 263.45 521.75 262.68 C 521.54 262.34 521.11 261.99 520.76 261.82 C 520.46 261.73 519.99 261.78 519.77 261.99 C 519.73 262.04 519.64 262.25 519.64 262.29 C 519.52 262.55 519.43 262.85 519.52 263.07 M 523.55 269.08 C 523.42 269.04 523.25 268.99 523.21 268.99 C 522.61 268.91 522.27 268.52 521.75 268.26 C 521.54 268.18 521.32 268.09 521.15 267.92 C 520.68 267.7 519.86 266.93 519.47 266.63 C 518.96 266.16 518.61 265.47 518.1 265.04 C 517.88 265.39 517.93 265.9 517.88 266.37 L 517.8 267.83 C 517.8 268.78 517.88 269.72 517.97 270.62 C 518.05 271.14 518.1 271.66 518.1 272.17 C 518.1 272.6 518.14 272.98 518.14 273.46 C 518.1 273.71 518.1 273.98 518.1 274.23 C 518.1 274.45 518.05 274.62 518.05 274.79 C 518.05 275.22 518.23 275.56 518.4 275.86 C 518.61 276.25 518.79 276.59 519.09 276.81 C 519.34 276.98 519.73 277.2 519.99 277.11 C 521.92 276.42 522.69 275.18 523.08 273.42 C 523.25 272.73 523.25 271.91 523.42 271.23 C 523.42 271.1 523.46 271.01 523.46 270.88 C 523.68 270.2 523.51 269.77 523.55 269.08 M 514.45 256.07 C 514.41 255.21 515.05 253.75 516.04 253.66 C 517.07 253.53 517.75 254.65 517.93 255.51 C 518.05 256.02 517.93 256.45 517.58 256.8 C 517.15 257.23 517.11 257.23 516.64 257.27 L 516.04 257.27 C 515.22 257.27 514.49 257.01 514.45 256.07 M 531.28 263.41 C 531.32 264.01 531.28 264.61 531.11 265.26 C 531.07 265.51 531.02 265.77 530.94 266.03 C 530.68 267.36 529.61 268.82 528.32 269.38 C 527.38 269.77 525.83 269.59 525.83 269.59 C 525.79 270.07 525.96 270.84 525.83 271.36 C 525.79 271.74 525.66 272.17 525.61 272.6 C 525.57 272.98 525.53 273.42 525.36 273.8 C 525.36 274.02 525.23 274.19 525.14 274.32 C 525.01 274.53 525.01 274.7 524.93 274.88 C 524.71 275.39 524.45 275.95 524.2 276.38 C 523.94 276.81 523.64 277.28 523.29 277.58 C 522.52 278.4 521.36 278.7 520.33 279.04 C 519.3 279.43 518.27 279.82 517.15 279.52 C 516.59 279.39 516.21 279.04 515.65 278.87 C 515.22 278.61 514.75 278.4 514.32 278.1 C 513.55 277.5 512.77 276.64 512.43 275.73 C 512.3 275.43 512.3 275.13 512.21 274.83 C 512.17 274.62 512.04 274.36 511.96 274.19 C 511.79 273.67 511.74 273.11 511.7 272.51 C 511.57 271.4 511.36 270.28 511.57 269.08 L 511.91 267.4 C 511.96 267.19 511.91 266.93 511.91 266.67 L 512 265.9 C 512.21 264.87 512.73 263.97 513.33 263.07 C 513.89 262.25 514.32 261.22 515.3 260.7 C 515.52 260.53 515.78 260.49 515.99 260.36 L 516.51 259.89 C 516.72 259.8 516.94 259.67 517.15 259.63 C 517.28 259.59 517.5 259.63 517.71 259.54 C 518.27 259.37 518.74 259.16 519.3 259.11 C 519.56 259.11 519.86 259.11 520.12 259.16 C 520.33 259.16 520.55 259.07 520.76 259.11 C 521.02 259.16 521.15 259.37 521.36 259.46 L 522.01 259.8 C 522.44 259.97 522.73 260.36 523.12 260.66 C 523.85 261.43 524.54 262.25 525.01 263.24 C 525.27 263.67 525.36 264.27 525.44 264.79 L 525.53 265.13 C 525.66 265.73 525.74 266.5 525.83 267.32 C 525.87 267.66 527.46 267.88 527.76 267.79 C 528.75 267.49 529.09 266.63 529.82 265.13 L 530.68 263.41 C 530.72 263.32 530.77 263.24 530.85 263.2 C 530.94 263.15 531.11 263.11 531.15 263.15 C 531.24 263.2 531.28 263.32 531.28 263.41 "/><path fill="#45a549" d="M 535.41 268.82 C 535.36 268.99 535.32 269.16 535.49 269.34 L 536.52 267.36 C 536.95 266.5 537.43 265.64 537.85 264.74 C 538.37 263.58 538.62 262.25 538.88 260.96 C 539.14 259.67 539.36 258.38 539.57 257.14 C 539.74 256.15 539.91 255.21 539.83 254.18 C 539.79 253.62 539.7 253.06 539.31 252.59 C 539.05 252.29 538.84 251.9 538.58 251.47 L 537.68 251.6 C 537.6 251.64 537.47 251.68 537.43 251.77 C 537.04 252.29 536.65 252.8 536.61 253.49 L 536.52 253.96 C 536.35 254.99 536.18 256.07 536.14 257.14 C 536.14 257.48 536.14 257.87 536.09 258.25 C 536.05 258.77 535.88 259.29 535.88 259.8 C 535.79 260.75 535.79 261.73 535.79 262.68 L 535.71 263.67 L 535.41 266.16 C 535.36 266.24 535.41 266.29 535.41 266.37 C 535.45 267.19 535.49 268 535.41 268.82 M 538.67 283.46 L 538.67 282.35 C 538.67 281.7 538.62 281.1 538.58 280.46 C 538.58 280.07 538.54 279.64 538.54 279.21 C 538.41 278.79 538.41 278.57 538.28 278.1 C 538.15 277.62 538.2 277.93 537.89 277.07 C 537.77 276.68 537.43 276.04 537.21 275.73 L 536.44 274.53 C 536.27 274.36 535.66 274.19 535.54 274.02 L 535.36 274.02 C 535.32 274.32 535.28 274.62 535.28 274.92 C 535.28 275.43 535.36 275.99 535.36 276.51 C 535.32 277.62 535.49 278.74 535.71 279.77 L 535.79 280.2 C 535.88 280.76 536.01 281.32 536.01 281.88 L 536.01 282.22 C 536.01 282.99 536.14 283.81 536.18 284.62 C 536.22 285.57 536.18 285.91 536.44 286.82 C 536.48 287.12 536.65 287.63 536.61 287.93 C 536.61 287.85 536.82 289.86 536.82 289.82 C 536.95 290.16 537 290.72 537.12 291.07 C 537.17 291.24 537.25 291.37 537.38 291.5 C 537.6 291.32 537.89 291.15 537.94 290.81 C 538.2 290.25 538.28 289.73 538.32 289.43 C 538.5 288.54 538.45 288.15 538.58 287.2 C 538.67 286.64 538.67 286.13 538.71 285.61 C 538.8 284.58 538.67 284.45 538.67 283.46 M 548.59 262.89 C 548.63 263.54 548.59 264.14 548.46 264.74 C 548.16 265.98 547.77 267.4 547.21 268.69 C 546.87 269.51 546.44 270.28 545.84 270.97 C 545.2 271.79 544.43 272.6 543.39 272.95 C 542.28 273.33 540.99 273.41 540 273.33 C 540.52 273.97 540.95 274.62 541.33 275.3 C 542.32 277.11 542.79 278.91 542.92 280.89 C 543.01 282.35 542.88 283.85 542.58 285.4 C 542.49 285.83 542.41 286.26 542.28 286.64 C 542.02 287.68 541.8 288.66 541.5 289.65 C 541.29 290.42 541.07 290.42 540.82 291.15 C 540.69 291.58 539.61 292.87 539.31 293 C 538.45 293.52 537.68 294.03 536.74 294.25 C 535.75 294.42 534.85 294.25 534.07 293.3 C 533.64 292.87 533.13 292.36 532.74 291.84 C 532.36 291.41 532.1 290.98 531.84 290.51 C 531.62 290.04 531.45 289.52 531.28 289.05 C 531.11 288.36 530.81 287.98 530.51 287.33 C 530.04 286.26 529.95 284.75 529.69 283.64 C 529.01 280.55 528.49 277.84 528.54 274.66 C 528.54 274.02 528.66 273.37 528.66 272.69 C 528.71 272.3 528.66 271.91 528.71 271.53 C 528.79 269.81 528.88 268.18 529.14 266.46 C 529.35 265.04 529.57 263.62 529.86 262.25 C 530.25 260.45 530.72 258.68 531.41 257.01 C 531.93 255.85 532.4 254.65 533.04 253.53 C 533.43 252.76 534.03 252.03 534.76 251.47 C 535.66 250.82 536.57 250.14 537.6 249.71 C 537.94 249.62 538.28 249.54 538.62 249.62 C 538.8 249.66 538.97 249.66 539.14 249.62 C 539.74 249.58 540.3 249.75 540.82 250.05 C 541.63 250.57 542.06 251.25 542.49 252.07 C 542.84 252.76 542.96 253.53 542.96 254.35 C 542.96 254.69 543.01 255.12 543.01 255.51 C 543.01 255.81 542.92 256.11 542.92 256.37 L 542.54 260.14 C 542.54 260.32 542.45 260.53 542.36 260.7 L 541.85 261.99 L 540.99 264.48 L 540.77 265.04 C 540.52 265.98 540.17 266.93 539.61 267.75 C 539.44 268 539.23 268.26 539.01 268.48 L 538.84 268.61 L 538.8 268.65 L 537.34 270.67 C 537.34 270.8 537.34 270.88 537.38 270.97 C 537.38 271.01 537.38 271.05 537.43 271.1 C 537.94 271.36 539.18 271.61 539.31 271.66 C 540 271.83 540.73 271.83 541.46 271.7 L 541.46 271.79 C 541.89 271.66 542.49 271.48 542.54 271.44 C 543.09 271.18 543.7 270.88 544.08 270.37 L 544.34 270.2 L 544.34 270.11 C 544.9 269.64 545.03 269.21 545.5 268.61 C 546.27 267.53 546.74 265.86 547.13 264.61 C 547.3 264.01 547.69 263.45 547.99 262.89 C 548.03 262.81 548.07 262.72 548.16 262.68 C 548.25 262.64 548.42 262.59 548.46 262.64 C 548.55 262.68 548.59 262.81 548.59 262.89 "/><path fill="#45a549" d="M 560.53 262.94 C 560.53 263.54 560.48 264.14 560.36 264.74 C 560.06 266.07 559.8 267.4 559.54 268.69 C 559.37 269.38 559.16 270.02 558.94 270.71 L 558.86 271.31 C 558.86 271.44 558.86 271.57 558.81 271.7 C 558.64 272.3 558.51 272.95 558.38 273.55 C 558.38 273.63 558.34 273.68 558.34 273.71 C 558.3 273.89 558.25 274.02 558.17 274.19 C 558.17 274.23 558.12 274.27 558.08 274.36 C 558.04 274.53 558 274.79 557.91 274.92 C 557.78 275.22 557.61 275.52 557.39 275.78 C 556.84 276.55 556.02 277.24 555.16 277.67 C 554.47 278.01 553.74 278.14 553.05 278.14 C 550.91 278.14 548.93 276.72 547.82 274.66 C 547.09 273.33 546.74 271.79 546.4 270.45 L 546.4 270.41 C 546.4 269.25 546.4 268.13 546.27 266.97 L 546.27 266.93 C 546.36 266.59 546.36 266.2 546.4 265.82 C 546.48 265.13 546.57 264.4 546.57 263.71 L 546.7 262.25 C 546.74 261.18 546.87 260.02 547.09 258.77 L 547.21 258.12 C 547 258.17 546.91 258.17 546.83 258.17 C 546.7 258.25 546.53 258.3 546.4 258.3 L 545.93 258.43 L 545.88 258.47 L 545.67 258.47 C 545.45 258.51 545.2 258.55 544.94 258.55 C 544.55 258.55 544.25 258.47 544.04 258.25 C 543.87 258.08 543.48 257.7 543.65 257.27 L 543.7 257.18 L 543.7 257.14 C 543.95 256.8 544.46 256.8 544.72 256.8 C 545.24 256.67 545.84 256.58 546.4 256.54 L 547.47 256.28 C 547.47 256.07 547.56 255.85 547.6 255.68 L 547.77 254.91 L 547.9 254.09 L 548.03 253.49 C 548.12 252.93 548.25 252.37 548.38 251.81 C 548.5 251.21 548.55 250.65 548.72 250.09 L 548.72 250.01 C 548.8 249.67 548.98 249.2 549.41 248.94 C 549.45 248.94 549.49 248.89 549.49 248.77 C 549.54 248.72 549.54 248.72 549.54 248.68 C 549.54 248.51 549.62 248.29 549.96 248.16 C 550.14 248.08 550.31 248.12 550.44 248.16 C 550.48 248.16 550.52 248.21 550.57 248.21 C 550.65 248.16 550.7 248.16 550.78 248.16 C 551 248.16 551.12 248.25 551.3 248.42 L 551.3 248.46 C 551.43 248.64 551.6 248.81 551.68 248.85 C 551.98 248.94 552.2 249.07 552.41 249.24 C 552.75 249.5 552.97 249.8 553.23 250.14 L 553.27 250.22 C 553.61 250.7 553.91 251.08 554 251.68 C 554.09 252.46 553.96 253.23 553.83 253.96 C 553.79 254.3 553.74 254.65 553.66 254.95 L 553.66 254.99 C 553.66 255.04 553.66 255.12 553.61 255.16 L 554.99 254.91 L 555.89 254.78 L 555.89 255.38 C 555.89 255.51 555.89 255.68 555.8 255.89 L 555.68 256.11 L 555.68 256.15 C 555.63 256.2 555.59 256.24 555.59 256.28 L 555.5 256.41 L 555.38 256.5 C 555.12 256.62 554.86 256.71 554.56 256.75 L 554.47 256.75 C 554.39 256.75 553.96 256.84 553.44 256.88 C 553.44 257.31 553.4 257.79 553.31 258.21 L 553.14 258.94 C 552.75 260.92 552.54 262.98 552.5 264.96 C 552.45 266.03 552.37 267.19 552.37 268.43 C 552.37 270.37 552.58 272.3 553.44 273.8 C 553.83 274.49 554.34 274.75 554.77 274.75 C 555.33 274.75 555.85 274.36 556.06 273.93 C 556.45 273.33 556.92 272.09 557.09 271.48 L 558.17 267.79 C 558.47 266.76 558.68 265.69 559.03 264.66 C 559.24 264.05 559.59 263.5 559.89 262.94 C 559.93 262.85 560.02 262.77 560.1 262.72 C 560.19 262.68 560.31 262.64 560.4 262.64 C 560.44 262.68 560.53 262.85 560.53 262.94 "/><path fill="#45a549" d="M 567.7 266.11 C 567.66 265.9 567.66 265.68 567.66 265.51 C 567.66 265.38 567.53 265.25 567.7 265.25 C 567.66 264.27 567.61 263.32 567.45 262.42 L 567.14 261.18 C 566.97 260.88 566.63 261.05 566.37 261.18 C 566.03 261.35 565.86 261.69 565.68 261.99 L 564.91 263.2 C 564.7 263.54 564.61 263.97 564.48 264.4 C 564.39 264.83 564.31 265.3 564.18 265.68 C 564.01 266.63 563.96 267.53 563.84 268.43 C 563.84 268.91 563.79 269.42 563.79 269.85 C 563.79 270.28 563.75 270.67 564.01 271.01 C 564.18 271.27 564.57 271.74 564.87 271.79 C 565.21 271.87 565.6 271.36 565.73 271.14 C 566.24 270.32 566.97 269.04 567.02 268.95 C 567.1 268.86 567.23 268.61 567.27 268.48 C 567.49 268.05 567.53 267.49 567.7 266.97 C 567.74 266.67 567.7 266.41 567.7 266.11 M 581.1 262.89 C 581.1 263.5 581.06 264.1 580.93 264.7 C 580.63 266.03 580.41 267.36 580.11 268.69 L 579.55 270.67 C 579.47 270.88 579.47 271.1 579.47 271.27 C 579.43 271.4 579.43 271.57 579.43 271.66 C 579.21 272.3 579.12 272.95 578.95 273.54 L 579 273.54 C 578.95 273.59 578.91 273.67 578.91 273.71 L 578.78 274.19 L 578.65 274.32 C 578.61 274.53 578.57 274.79 578.48 274.92 C 578.35 275.22 578.18 275.52 577.96 275.78 L 577.11 276.85 C 576.25 277.84 575.3 278.27 574.36 278.27 C 572.47 278.27 570.58 276.59 569.59 274.62 C 569.29 273.97 567.87 271.74 568.26 271.01 C 568.04 271.44 567.45 271.96 567.36 272.39 L 567.36 272.6 C 567.1 272.73 566.84 272.95 566.63 273.2 C 566.46 273.33 566.29 273.54 566.16 273.76 C 565.94 273.93 565.68 274.02 565.43 274.19 C 564.95 274.45 564.44 274.66 563.88 274.66 C 562.85 274.79 561.86 274.02 560.92 273.54 C 560.7 273.46 560.4 273.24 560.19 273.29 C 560.05 273.33 560.1 273.41 559.93 273.29 C 559.88 273.2 559.8 273.16 559.67 273.11 C 559.54 272.86 559.37 272.64 559.24 272.43 C 559.11 272.34 559.07 272.26 558.98 272.13 L 558.98 271.96 C 558.9 271.48 558.55 271.1 558.43 270.58 C 558.3 270.11 558.3 269.59 558.34 269.12 C 558.38 268 558.55 266.8 558.73 265.68 C 559.07 263.58 559.84 261.39 560.96 259.54 C 561.26 259.07 561.61 258.64 561.99 258.25 C 562.29 257.91 562.72 257.91 563.19 257.7 C 564.05 257.35 565.04 256.75 565.98 257.44 C 566.33 257.7 566.41 258.17 566.8 258.43 C 566.89 258.47 567.02 258.38 567.14 258.34 C 567.4 258.25 567.66 258.17 567.91 258.12 C 568.47 257.91 568.99 257.91 569.63 257.95 C 569.8 257.95 570.06 257.95 570.23 258.12 C 570.45 258.3 570.58 258.47 570.75 258.64 C 571.09 259.07 571.39 259.46 571.61 259.97 C 571.78 260.45 571.78 260.96 571.91 261.43 C 572 262.55 572.08 263.71 572.25 264.83 C 572.51 266.67 572.6 268.52 572.9 270.32 C 573.07 271.36 573.24 272.43 573.63 273.41 C 573.84 274.02 574.36 274.88 575 275.09 C 576.76 275.78 577.41 272.43 577.66 271.44 C 578.05 270.24 578.39 268.99 578.74 267.79 C 579.04 266.71 579.25 265.64 579.6 264.61 C 579.81 264.01 580.16 263.45 580.46 262.89 C 580.5 262.81 580.59 262.72 580.67 262.68 C 580.76 262.64 580.89 262.55 580.97 262.59 C 581.06 262.64 581.1 262.77 581.1 262.89 "/><path fill="#45a549" d="M 582.05 257.78 C 582.18 257.31 582.3 256.75 582.39 256.24 C 582.48 255.77 582.65 255.38 582.65 254.91 C 582.69 253.92 582.91 252.93 582.95 251.98 C 582.95 251.43 583.04 251.04 582.99 250.48 C 582.95 250.22 582.95 249.58 582.61 249.5 C 582.13 249.41 582 249.96 581.88 250.31 C 581.75 250.78 581.62 251.21 581.53 251.73 C 581.32 252.76 581.02 253.75 580.89 254.78 C 580.71 255.77 580.71 256.93 580.71 257.95 C 580.76 258.51 580.76 259.03 580.84 259.59 C 580.89 259.8 580.89 260.83 581.19 260.88 C 581.53 259.89 581.79 258.81 582.05 257.78 M 591.41 262.89 C 591.41 263.54 591.37 264.14 591.24 264.74 C 590.93 266.03 590.72 267.36 590.42 268.69 C 590.25 269.38 590.04 270.02 589.86 270.67 C 589.78 270.88 589.78 271.1 589.73 271.31 L 589.73 271.7 C 589.52 272.3 589.39 272.95 589.26 273.54 C 589.26 273.63 589.22 273.67 589.22 273.71 L 589.09 274.19 L 588.96 274.32 C 588.92 274.53 588.88 274.79 588.79 274.92 C 588.66 275.22 588.49 275.48 588.32 275.78 C 587.33 277.15 586.12 277.75 584.92 277.75 C 583.38 277.75 581.88 276.72 580.93 274.92 C 580.46 274.06 580.24 274.02 579.86 273.16 L 579.34 271.79 C 579.34 271.66 579.3 271.48 579.25 271.36 L 579 270.8 L 578.7 270.02 C 578.61 269.68 578.48 269.38 578.35 269.04 C 578.27 268.86 578.31 268.78 578.27 268.73 L 578.27 268.61 C 578.27 268.52 578.27 268.39 578.18 268.26 C 578.05 267.4 577.75 266.54 577.71 265.64 C 577.62 264.74 577.58 264.27 577.41 263.37 L 577.32 262.94 L 577.32 262.81 C 577.36 262.38 577.41 261.91 577.41 261.43 C 577.41 260.92 577.36 260.45 577.23 259.93 C 577.23 259.5 577.28 259.07 577.28 258.64 C 577.28 258.08 577.32 257.61 577.32 257.05 C 577.41 255.94 577.49 254.82 577.71 253.7 L 577.84 251.68 C 577.92 251.51 578.01 251.34 578.05 251.12 C 578.09 249.96 578.87 249.02 579.25 247.95 C 579.3 247.86 579.34 247.78 579.43 247.73 C 579.73 247.3 580.16 246.92 580.59 246.57 C 580.97 246.23 581.32 245.84 581.88 245.84 C 582.39 245.84 582.95 245.76 583.46 246.02 C 583.85 246.23 584.15 246.57 584.36 247 C 584.66 247.43 584.92 247.95 585.14 248.46 C 585.27 248.94 585.27 249.5 585.27 250.01 C 585.22 251.12 585.14 252.29 584.96 253.4 C 584.79 254.48 584.58 255.59 584.32 256.58 C 584.02 257.65 583.55 258.73 583.25 259.71 C 582.91 260.79 582.48 261.78 582.13 262.81 L 581.57 264.48 C 581.45 265 581.49 265.39 581.57 265.94 C 581.75 266.97 581.75 267.23 582.09 268.3 C 582.39 269.34 582.69 270.28 583.21 271.23 C 583.59 272 584.19 273.63 584.96 274.02 C 586.64 274.83 587.67 272.6 588.02 271.44 L 589.05 267.79 C 589.35 266.76 589.56 265.68 589.91 264.66 C 590.12 264.01 590.46 263.5 590.77 262.89 C 590.8 262.81 590.89 262.77 590.98 262.72 C 591.07 262.64 591.2 262.59 591.28 262.64 C 591.32 262.68 591.41 262.81 591.41 262.89 "/><path fill="#45a549" d="M 595.23 266.63 C 595.62 265.9 596.22 265.34 596.56 264.57 C 596.86 263.93 596.99 263.15 597.12 262.42 C 597.25 261.69 597.42 260.83 597.21 260.06 C 597.12 259.54 596.78 258.86 596.09 258.86 C 595.75 258.9 595.49 259.24 595.32 259.46 L 594.63 260.32 C 594.2 260.92 593.94 261.56 593.94 262.34 C 593.9 263.11 594.11 263.88 594.37 264.57 C 594.54 264.96 594.67 265.34 594.8 265.73 C 594.89 265.98 595.02 266.37 595.14 266.63 C 595.14 266.63 595.19 266.63 595.19 266.67 Z M 609.23 264.7 C 609.23 264.83 609.19 264.91 609.19 264.96 L 609.23 264.96 C 609.19 265 609.14 265.09 609.14 265.17 C 608.93 266.16 608.54 267.14 608.33 268.18 C 608.29 268.18 608.24 268.22 608.24 268.26 L 608.16 268.35 L 608.16 268.69 L 608.11 268.69 L 608.11 268.82 C 607.86 269.12 607.68 269.46 607.47 269.85 C 607.47 269.89 607.43 269.98 607.38 270.02 C 607.34 270.15 607.34 270.24 607.34 270.37 C 607.3 270.37 607.25 270.41 607.17 270.45 C 606.91 270.58 606.91 270.84 607 271.05 C 606.65 271.48 606.61 271.96 606.31 272.43 L 606.18 272.64 L 606.05 272.64 L 605.84 272.95 L 605.15 273.54 L 604.85 273.89 L 604.68 274.06 C 604.21 274.32 604.16 274.7 603.78 275.09 L 603.69 275.18 L 603.52 275.3 C 602.1 276.68 600.64 277.15 599.09 277.15 C 597.89 277.15 596.61 276.85 595.23 276.42 L 595.1 276.42 L 594.54 276.04 C 594.37 275.95 594.24 275.86 594.07 275.69 C 593.9 275.56 593.64 275.43 593.38 275.3 C 593.17 275.13 593.04 274.92 592.82 274.79 C 592.61 274.57 592.39 274.4 592.27 274.23 C 592.18 274.14 592.01 273.89 591.84 273.89 C 591.75 273.84 591.71 273.67 591.66 273.59 C 591.54 273.33 591.41 273.12 591.32 272.86 C 591.11 272.52 590.89 272.17 590.68 271.74 C 589.69 269.94 589.35 267.7 589.48 265.64 C 589.56 264.53 589.86 263.41 590.21 262.34 C 590.51 261.35 591.06 260.49 591.75 259.71 C 592.05 259.37 592.27 258.94 592.61 258.64 C 592.91 258.38 593.25 258.17 593.68 258 C 594.16 257.78 594.67 257.65 595.19 257.48 C 595.66 257.31 596.05 257.18 596.56 257.27 C 597.04 257.39 597.46 257.65 597.94 257.82 C 598.28 257.95 598.62 258.25 598.88 258.55 C 599.48 259.2 599.74 260.1 599.87 260.96 C 599.91 261.48 599.91 262.04 599.7 262.59 L 599.22 263.97 C 598.88 264.91 598.54 265.86 597.77 266.59 C 597.38 266.97 597.04 267.45 596.61 267.88 C 596.48 268.05 596.3 268.22 596.18 268.43 C 596 268.61 595.96 268.73 596.05 269.04 C 596.26 269.55 596.43 270.02 596.73 270.5 C 596.86 270.8 597.04 271.01 597.21 271.23 L 597.21 271.36 L 597.46 271.79 C 598.11 273.07 599.18 273.63 600.3 273.63 C 601.16 273.63 602.1 273.29 602.88 272.73 C 603.35 272.43 603.52 271.61 604.21 271.61 C 604.21 271.05 604.46 271.01 604.81 270.67 C 604.94 270.54 605.67 269.68 605.8 269.68 C 605.88 269.68 605.58 269.64 605.67 269.51 C 605.8 269.21 605.97 268.91 606.14 268.65 C 606.48 268.09 606.74 267.53 607 266.89 C 607.34 266.11 607.64 265.43 607.9 264.61 C 608.11 264.01 608.46 263.45 608.76 262.89 C 608.8 262.81 608.89 262.72 608.97 262.68 C 609.06 262.64 609.19 262.59 609.27 262.64 C 609.36 262.64 609.4 262.81 609.4 262.89 C 609.4 263.5 609.36 264.1 609.23 264.7 "/><path fill="#45a549" d="M 622.33 247.48 C 622.37 247.18 622.2 246.92 621.9 246.75 C 620.66 246.14 620.61 249.37 620.61 249.88 C 620.61 250.31 620.44 250.65 620.48 251 C 620.57 251.47 620.66 251.77 620.61 252.11 C 620.48 252.93 620.61 254.99 620.7 255.77 C 620.7 255.98 620.74 256.11 620.87 256.28 C 621 256.28 620.96 256.02 621 255.85 C 621.04 255.46 621.17 255.04 621.21 254.65 C 621.52 253.02 621.9 250.09 622.33 248.51 L 622.33 248.46 C 622.37 248.12 622.33 247.82 622.33 247.48 M 618.72 265.86 C 618.12 265.09 615.07 261.73 614.38 262.89 C 613.91 263.71 613.96 264.57 613.87 265.43 C 613.74 266.24 613.66 268.13 613.7 268.99 C 613.74 269.94 614.12 270.54 614.47 271.4 C 614.94 272.6 615.97 272.13 616.79 271.31 C 617.26 270.84 617.69 270.24 617.86 269.89 C 618.21 269.16 619.32 266.59 618.72 265.86 M 633.45 262.85 C 633.45 263.5 633.41 264.1 633.28 264.7 C 632.77 267.06 632.42 269.38 631.78 271.7 C 631.73 271.7 631.73 271.7 631.73 271.74 C 631.73 271.7 631.69 271.7 631.69 271.7 C 630.96 273.29 629.89 274.4 627.91 274.45 C 626.58 274.53 625.04 274.14 623.96 273.29 C 623.53 272.95 622.2 271.96 621.52 270.15 C 621.34 270.32 621.21 270.62 621.21 270.75 C 621.13 271.05 621.17 271.23 621 271.44 C 620.87 271.66 620.7 271.87 620.53 272.09 C 620.27 272.43 619.97 272.86 619.54 273.11 C 618.72 273.71 617.65 274.06 616.7 274.32 C 616.19 274.49 615.54 274.53 614.98 274.53 C 614.47 274.53 613.96 274.49 613.44 274.36 C 612.5 274.19 611.59 273.89 610.73 273.42 C 610.05 273.03 609.4 272.51 608.93 271.87 C 608.5 271.23 608.16 270.5 607.94 269.68 C 607.68 268.73 607.34 266.84 607.51 265.9 C 607.73 264.91 607.68 263.8 608.2 262.89 C 608.71 262.04 609.27 261.09 610.05 260.49 C 610.48 260.19 610.82 259.89 611.29 259.71 C 611.81 259.59 612.37 259.5 612.84 259.5 C 613.27 259.54 613.57 259.67 613.91 259.71 C 614.04 259.8 614.21 259.93 614.47 259.93 C 615.41 259.8 616.23 260.49 617.09 260.92 C 617.82 261.61 618.46 262.38 618.98 262.81 C 619.11 262.85 619.37 263.2 619.54 263.11 C 619.75 263.02 619.8 262.72 619.8 262.51 C 619.8 262.04 619.62 261.61 619.62 261.09 C 619.62 260.53 619.37 259.2 619.24 258.64 C 619.15 258.08 619.11 257.57 619.07 257.01 C 619.02 255.89 618.68 254.86 618.72 253.75 L 618.81 250.31 C 618.89 249.2 619.15 248.16 619.5 247.18 C 619.67 246.66 619.67 246.23 620.1 245.89 C 620.44 245.59 620.91 245.46 621.34 245.24 C 621.56 245.11 621.86 244.98 622.11 244.98 C 622.37 244.98 622.63 245.03 622.84 245.07 C 623.32 245.16 623.83 245.16 624.26 245.41 C 625.16 245.84 625.72 246.57 626.11 247.52 C 626.24 247.95 626.37 248.51 626.41 249.07 C 626.41 249.58 626.32 250.09 626.28 250.61 C 626.11 251.81 626.07 252.93 626.02 254.05 C 625.98 254.61 625.85 255.16 625.81 255.72 C 625.77 256.24 625.72 256.71 625.59 257.23 C 625.51 257.79 625.29 258.04 625.25 258.55 C 625.16 259.11 625.16 259.63 625.04 260.1 C 624.99 260.36 624.86 260.57 624.69 260.83 C 624.65 261.09 624.56 261.35 624.48 261.61 C 624.35 262.08 624.26 262.59 624.05 263.07 C 623.88 263.67 623.62 264.4 623.49 264.95 C 623.4 265.39 623.49 265.94 623.66 266.5 C 624.48 267.57 625.77 269.38 625.77 269.42 C 626.32 270.2 627.14 271.61 628.21 271.79 C 630.06 272.17 630.7 268.99 631.05 267.79 C 631.35 266.76 631.61 265.64 631.95 264.61 C 632.16 263.97 632.51 263.45 632.81 262.85 C 632.85 262.77 632.94 262.72 633.02 262.68 C 633.11 262.59 633.24 262.55 633.32 262.59 C 633.41 262.64 633.45 262.77 633.45 262.85 "/><path fill="#45a549" d="M 637.23 266.63 C 637.62 265.9 638.22 265.34 638.56 264.57 C 638.86 263.93 638.99 263.15 639.12 262.42 C 639.25 261.69 639.42 260.83 639.21 260.06 C 639.12 259.54 638.78 258.86 638.09 258.86 C 637.75 258.9 637.49 259.24 637.32 259.46 L 636.63 260.32 C 636.2 260.92 635.95 261.56 635.95 262.34 C 635.9 263.11 636.12 263.88 636.38 264.57 C 636.55 264.96 636.68 265.34 636.8 265.73 C 636.89 265.98 637.02 266.37 637.15 266.63 C 637.15 266.63 637.19 266.63 637.19 266.67 Z M 651.23 264.7 C 651.23 264.83 651.19 264.91 651.19 264.96 L 651.23 264.96 C 651.19 265 651.15 265.09 651.15 265.17 C 650.93 266.16 650.55 267.14 650.33 268.18 C 650.29 268.18 650.25 268.22 650.25 268.26 L 650.16 268.35 L 650.16 268.69 L 650.12 268.69 L 650.12 268.82 C 649.86 269.12 649.69 269.46 649.47 269.85 C 649.47 269.89 649.43 269.98 649.39 270.02 C 649.34 270.15 649.34 270.24 649.34 270.37 C 649.3 270.37 649.26 270.41 649.17 270.45 C 648.91 270.58 648.91 270.84 649 271.05 C 648.66 271.48 648.61 271.96 648.31 272.43 L 648.18 272.64 L 648.05 272.64 L 647.84 272.95 L 647.15 273.54 L 646.85 273.89 L 646.68 274.06 C 646.21 274.32 646.16 274.7 645.78 275.09 L 645.7 275.18 L 645.52 275.3 C 644.11 276.68 642.64 277.15 641.1 277.15 C 639.89 277.15 638.61 276.85 637.23 276.42 L 637.11 276.42 L 636.55 276.04 C 636.38 275.95 636.25 275.86 636.07 275.69 C 635.9 275.56 635.64 275.43 635.39 275.3 C 635.17 275.13 635.04 274.92 634.83 274.79 C 634.61 274.57 634.4 274.4 634.27 274.23 C 634.18 274.14 634.01 273.89 633.84 273.89 C 633.75 273.84 633.71 273.67 633.67 273.59 C 633.54 273.33 633.41 273.12 633.32 272.86 C 633.11 272.52 632.89 272.17 632.68 271.74 C 631.69 269.94 631.35 267.7 631.48 265.64 C 631.56 264.53 631.86 263.41 632.21 262.34 C 632.51 261.35 633.07 260.49 633.75 259.71 C 634.05 259.37 634.27 258.94 634.61 258.64 C 634.91 258.38 635.26 258.17 635.69 258 C 636.16 257.78 636.68 257.65 637.19 257.48 C 637.66 257.31 638.05 257.18 638.56 257.27 C 639.04 257.39 639.46 257.65 639.94 257.82 C 640.28 257.95 640.62 258.25 640.88 258.55 C 641.48 259.2 641.74 260.1 641.87 260.96 C 641.91 261.48 641.91 262.04 641.7 262.59 L 641.23 263.97 C 640.88 264.91 640.54 265.86 639.77 266.59 C 639.38 266.97 639.04 267.45 638.61 267.88 C 638.48 268.05 638.3 268.22 638.18 268.43 C 638 268.61 637.96 268.73 638.05 269.04 C 638.26 269.55 638.43 270.02 638.73 270.5 C 638.86 270.8 639.04 271.01 639.21 271.23 L 639.21 271.36 L 639.46 271.79 C 640.11 273.07 641.18 273.63 642.3 273.63 C 643.16 273.63 644.11 273.29 644.88 272.73 C 645.35 272.43 645.52 271.61 646.21 271.61 C 646.21 271.05 646.46 271.01 646.81 270.67 C 646.94 270.54 647.67 269.68 647.8 269.68 C 647.88 269.68 647.58 269.64 647.67 269.51 C 647.8 269.21 647.97 268.91 648.14 268.65 C 648.48 268.09 648.74 267.53 649 266.89 C 649.34 266.11 649.64 265.43 649.9 264.61 C 650.12 264.01 650.46 263.45 650.76 262.89 C 650.8 262.81 650.89 262.72 650.98 262.68 C 651.06 262.64 651.19 262.59 651.28 262.64 C 651.36 262.64 651.41 262.81 651.41 262.89 C 651.41 263.5 651.36 264.1 651.23 264.7 "/><path fill="#45a549" d="M 667.73 262.94 C 667.73 263.54 667.68 264.14 667.55 264.74 C 667.25 266.07 667 267.4 666.74 268.69 L 666.18 270.71 C 666.09 270.88 666.09 271.1 666.05 271.31 C 666.05 271.44 666.05 271.57 666.01 271.7 C 665.92 272.13 665.75 272.69 665.49 273.5 L 665.45 273.55 L 665.02 274.75 C 665.02 274.7 664.98 274.7 664.98 274.7 L 664.89 274.88 C 664.68 275.18 664.55 275.43 664.29 275.69 L 664.03 275.86 C 663.95 276.08 663.73 276.25 663.47 276.34 C 663.43 276.34 663.34 276.38 663.3 276.42 C 662.83 276.94 662.18 276.85 661.62 277.02 C 661.54 277.02 661.5 277.02 661.46 276.98 C 660.86 276.72 660.25 276.46 659.87 275.99 C 659.52 275.56 659.18 275.13 658.96 274.62 C 658.84 274.23 658.54 273.97 658.45 273.55 C 658.32 272.95 658.11 272.38 657.98 271.74 C 657.85 271.18 657.8 270.58 657.76 269.98 C 657.76 269.85 657.72 269.72 657.72 269.64 C 657.63 269.16 657.29 267.79 657.25 267.36 C 657.16 266.8 657.03 266.24 656.99 265.73 C 656.95 265.3 656.95 264.83 656.95 264.4 L 656.95 263.02 C 656.95 262.98 656.9 262.94 656.9 262.85 L 656.77 262.94 C 656.39 263.67 655.83 264.4 655.61 265.21 C 655.4 265.9 655.23 266.59 655.05 267.32 L 654.62 268.69 C 654.32 269.68 653.98 270.71 653.64 271.7 C 653.59 272 653.43 272.26 653.34 272.51 C 653.21 272.77 653.25 272.99 653.3 273.2 C 653.34 273.38 653.43 273.59 653.12 273.55 C 653.04 273.55 652.95 273.63 652.91 273.68 C 652.78 273.84 652.7 274.06 652.52 274.19 C 652.31 274.32 652.05 274.4 651.79 274.45 C 651.49 274.57 651.23 274.4 650.93 274.23 C 650.8 274.14 650.63 274.1 650.55 274.02 C 650.29 273.84 650.07 273.63 650.03 273.33 C 649.95 272.69 649.82 272.09 649.77 271.48 C 649.73 271.23 649.77 270.97 649.82 270.75 C 649.95 269.77 649.86 268.82 649.73 267.88 C 649.69 267.4 649.64 266.93 649.64 266.41 C 649.64 265.73 649.69 265.04 649.69 264.4 C 649.73 263.15 649.3 261.78 649.43 260.57 C 649.43 260.45 649.43 260.36 649.34 260.27 C 649.95 259.76 650.59 259.46 651.28 259.33 C 651.41 259.41 651.49 259.46 651.58 259.59 C 651.92 259.89 652.18 260.27 652.35 260.75 C 652.57 261.3 652.82 261.82 653 262.42 C 653.12 262.89 653.21 263.45 653.3 263.97 L 653.43 264.57 L 653.51 265 L 653.59 265 L 653.85 264.23 C 654.07 263.28 654.37 262.38 654.75 261.52 C 654.97 261 655.23 260.53 655.48 260.06 C 655.66 259.67 655.96 259.41 656.39 259.37 C 656.82 259.33 657.25 259.11 657.72 259.03 C 657.93 258.98 658.23 259.03 658.49 259.07 C 659.01 259.11 659.48 259.33 659.87 259.67 L 660.6 260.49 C 661.24 261.18 661.33 262.21 661.46 263.15 L 661.58 264.36 C 661.67 264.83 661.62 265.3 661.67 265.77 C 661.67 266.37 661.71 266.93 661.71 267.53 C 661.75 267.57 661.75 267.62 661.75 267.66 C 661.71 268.18 661.97 269.59 661.97 270.07 C 661.97 270.84 661.84 271.61 662.14 272.34 C 662.27 272.69 662.23 273.46 662.48 273.76 C 663.13 274.53 663.73 273.07 663.95 272.69 L 664.29 271.66 C 664.29 271.57 664.29 271.53 664.33 271.48 L 665.36 267.83 C 665.66 266.76 665.88 265.69 666.22 264.66 C 666.44 264.05 666.78 263.5 667.08 262.94 C 667.12 262.85 667.21 262.77 667.3 262.72 C 667.38 262.68 667.51 262.64 667.6 262.68 C 667.64 262.72 667.73 262.85 667.73 262.94 "/></g></svg>